# xmcd
#
# Track frame offsets:
#	150
#	17630
#	30060
#	38280
#	49495
#	60352
#	73015
#	93525
#	104482
#	119312
#	141087
#	156740
#	180157
#	202762
#	220887
#	247962
#
# Disc length: 3402 seconds
#
# Revision: 2
# Processed by: cddbd v1.5.2PL0 Copyright (c) Steve Scherf et al.
# Submitted via: EZCDAudioConverter 2.0.7.1
#
DISCID=cf0d4810
DTITLE=GOLDEN BOYS - AO VIVO
DYEAR=1991
DGENRE=Blues
TTITLE0=ABERTURA/ALGUÉM NA MULTIDÃO (BY DJ GILMAR SINISTRO)
TTITLE1=LITTLE DARLING (BY DJ GILMAR SINISTRO)
TTITLE2=MEU ROMANCE COM LAURA (BY DJ GILMAR SINISTRO)
TTITLE3=AI DE MIM (ALL OF ME) (BY DJ GILMAR SINISTRO)
TTITLE4=MÁGOA (HEARTACHES) (BY DJ GILMAR SINISTRO)
TTITLE5=PENSANDO NELA (BUS STOP) (BY DJ GILMAR SINISTRO)
TTITLE6=LA BAMBA (BY DJ GILMAR SINISTRO)
TTITLE7=CASACO MARROM (BY BY CECY) (BY DJ GILMAR SINISTRO)
TTITLE8=ANDANÇA (BY DJ GILMAR SINISTRO)
TTITLE9=POT-POURRI ANOS 80 (CHUVA DE PRATA - MUITO ESTRANHO - ME CHAMA - COMO 
TTITLE9=UMA ONDA (ZEN SURFISMO) (BY DJ GILMAR SINISTRO)
TTITLE10=ANJO (BY DJ GILMAR SINISTRO)
TTITLE11=POT-POURRI JOVEM GUARDA (DEVOLVA-ME - GATINHA MANHOSA - POBRE MENINA 
TTITLE11=(HANG ON SLOOPY) - MENINA LINDA (I SHOULD HAVE KNOWN BETTER) (BY DJ G
TTITLE11=ILMAR SINISTRO)
TTITLE12=POT-POURRI (NAMORADINHA DE UM AMIGO MEU - ESQUEÇA (FORGET HIM) - QUER
TTITLE12=O QUE VÁ TUDO PRO INFERNO - QUANDO - É PAPO FIRME) (BY DJ GILMAR SINI
TTITLE12=STRO)
TTITLE13=O CABEÇÃO (BY DJ GILMAR SINISTRO)
TTITLE14=FUMACÊ (BY DJ GILMAR SINISTRO)
TTITLE15=FINALE - MCARTHUR'S PARK (BY DJ GILMAR SINISTRO)
EXTD=
EXTT0=
EXTT1=
EXTT2=
EXTT3=
EXTT4=
EXTT5=
EXTT6=
EXTT7=
EXTT8=
EXTT9=
EXTT10=
EXTT11=
EXTT12=
EXTT13=
EXTT14=
EXTT15=
PLAYORDER=
